<svg width="54" height="57" viewBox="0 0 54 57" fill="none" xmlns="http://www.w3.org/2000/svg">
<g filter="url(#filter0_d_2173_298)">
<path d="M32.2929 23.7071C32.9229 23.0771 32.4767 22 31.5858 22H30V17C30 16.4477 29.5523 16 29 16H25C24.4477 16 24 16.4477 24 17V22H22.4142C21.5233 22 21.0771 23.0771 21.7071 23.7071L26.2929 28.2929C26.6834 28.6834 27.3166 28.6834 27.7071 28.2929L32.2929 23.7071ZM25.5 23.5V17.5H28.5V23.5H29.5L27 26.17L24.5 23.5H25.5ZM20 32C20 31.4477 20.4477 31 21 31H33C33.5523 31 34 31.4477 34 32C34 32.5523 33.5523 33 33 33H21C20.4477 33 20 32.5523 20 32Z" fill="white"/>
</g>
<defs>
<filter id="filter0_d_2173_298" x="0" y="0" width="54" height="57" filterUnits="userSpaceOnUse" color-interpolation-filters="sRGB">
<feFlood flood-opacity="0" result="BackgroundImageFix"/>
<feColorMatrix in="SourceAlpha" type="matrix" values="0 0 0 0 0 0 0 0 0 0 0 0 0 0 0 0 0 0 127 0" result="hardAlpha"/>
<feOffset dy="4"/>
<feGaussianBlur stdDeviation="10"/>
<feComposite in2="hardAlpha" operator="out"/>
<feColorMatrix type="matrix" values="0 0 0 0 0 0 0 0 0 0 0 0 0 0 0 0 0 0 0.25 0"/>
<feBlend mode="normal" in2="BackgroundImageFix" result="effect1_dropShadow_2173_298"/>
<feBlend mode="normal" in="SourceGraphic" in2="effect1_dropShadow_2173_298" result="shape"/>
</filter>
</defs>
</svg>
