<svg width="1440" height="1024" viewBox="0 0 1440 1024" fill="none" xmlns="http://www.w3.org/2000/svg">
<g clip-path="url(#clip0_2440_99)">
<rect width="1440" height="1024" fill="#1526FF"/>
<path d="M1279.19 -38H1263.6C1263.6 -38 1261.42 -37.1644 1260.91 -36.2731L1200.19 39.8237C1199.18 41.105 1197.56 41.6064 1196.04 41.0493C1194.47 40.4922 1193.41 38.9881 1193.41 37.2055V-32.5963C1193.41 -33.989 1192.69 -35.7717 1191.73 -36.7187C1190.89 -37.6658 1188.71 -38 1188.71 -38H1173.01C1171.66 -38 1170.82 -37.5543 1170.32 -36.7187L1102.07 48.2356C1100.95 49.6283 1100.34 51.3552 1100.34 53.2493L1100 79.7662C1100 81.3817 1100.67 82.6073 1101.79 83.053C1102.69 83.3872 1103.64 83.1087 1104.49 82.2731L1164.76 6.62192C1165.77 5.34064 1167.39 4.83927 1168.91 5.39635C1170.48 5.95343 1171.54 7.45753 1171.54 9.24018V78.8192C1171.54 80.1562 1171.88 81.3817 1172.55 82.2173C1173.39 83.3872 1174.46 84 1175.75 84H1191.5C1191.5 84 1193.69 83.053 1194.58 82.0502L1255.19 6.28767C1256.2 5.00639 1257.88 4.50502 1259.34 5.0621C1260.91 5.61918 1261.98 7.12328 1262.37 8.90593V78.3178C1261.98 79.9333 1262.48 81.3817 1263.38 82.3288C1264.22 83.2201 1265.23 83.6658 1266.35 83.4429H1278.96C1280.09 83.6658 1281.09 83.2758 1281.82 82.6073C1282.94 81.6046 1283.67 78.6521 1283.67 78.6521V-32.5963C1283.67 -33.989 1283.35 -35.6046 1282.45 -36.5516C1281.61 -37.4986 1280.6 -38 1279.48 -38" fill="#0166FC"/>
<path d="M1357.56 -7.5C1357 -7.5 1356.56 -7.05228 1356.56 -6.5V15.9C1356.56 16.4523 1356.11 16.9 1355.56 16.9H1330.59C1330.04 16.9 1329.59 17.3477 1329.59 17.9V31.15C1329.59 31.7023 1330.04 32.15 1330.59 32.15H1355.56C1356.11 32.15 1356.56 32.5977 1356.56 33.15V55.55C1356.56 56.1023 1357 56.55 1357.56 56.55H1372.04C1372.59 56.55 1373.04 56.1023 1373.04 55.55V33.15C1373.04 32.5977 1373.48 32.15 1374.04 32.15H1399C1399.55 32.15 1400 31.7023 1400 31.15V17.9C1400 17.3477 1399.55 16.9 1399 16.9H1374.04C1373.48 16.9 1373.04 16.4523 1373.04 15.9V-6.5C1373.04 -7.05229 1372.59 -7.5 1372.04 -7.5H1357.56Z" fill="#0166FC"/>
<path d="M1279.19 124H1263.6C1263.6 124 1261.42 124.836 1260.91 125.727L1200.19 201.824C1199.18 203.105 1197.56 203.606 1196.04 203.049C1194.47 202.492 1193.41 200.988 1193.41 199.205V129.404C1193.41 128.011 1192.69 126.228 1191.73 125.281C1190.89 124.334 1188.71 124 1188.71 124H1173.01C1171.66 124 1170.82 124.446 1170.32 125.281L1102.07 210.236C1100.95 211.628 1100.34 213.355 1100.34 215.249L1100 241.766C1100 243.382 1100.67 244.607 1101.79 245.053C1102.69 245.387 1103.64 245.109 1104.49 244.273L1164.76 168.622C1165.77 167.341 1167.39 166.839 1168.91 167.396C1170.48 167.953 1171.54 169.458 1171.54 171.24V240.819C1171.54 242.156 1171.88 243.382 1172.55 244.217C1173.39 245.387 1174.46 246 1175.75 246H1191.5C1191.5 246 1193.69 245.053 1194.58 244.05L1255.19 168.288C1256.2 167.006 1257.88 166.505 1259.34 167.062C1260.91 167.619 1261.98 169.123 1262.37 170.906V240.318C1261.98 241.933 1262.48 243.382 1263.38 244.329C1264.22 245.22 1265.23 245.666 1266.35 245.443H1278.96C1280.09 245.666 1281.09 245.276 1281.82 244.607C1282.94 243.605 1283.67 240.652 1283.67 240.652V129.404C1283.67 128.011 1283.35 126.395 1282.45 125.448C1281.61 124.501 1280.6 124 1279.48 124" fill="#0166FC"/>
<path d="M1357.56 154.5C1357 154.5 1356.56 154.948 1356.56 155.5V177.9C1356.56 178.452 1356.11 178.9 1355.56 178.9H1330.59C1330.04 178.9 1329.59 179.348 1329.59 179.9V193.15C1329.59 193.702 1330.04 194.15 1330.59 194.15H1355.56C1356.11 194.15 1356.56 194.598 1356.56 195.15V217.55C1356.56 218.102 1357 218.55 1357.56 218.55H1372.04C1372.59 218.55 1373.04 218.102 1373.04 217.55V195.15C1373.04 194.598 1373.48 194.15 1374.04 194.15H1399C1399.55 194.15 1400 193.702 1400 193.15V179.9C1400 179.348 1399.55 178.9 1399 178.9H1374.04C1373.48 178.9 1373.04 178.452 1373.04 177.9V155.5C1373.04 154.948 1372.59 154.5 1372.04 154.5H1357.56Z" fill="#0166FC"/>
<path d="M1279.19 286H1263.6C1263.6 286 1261.42 286.836 1260.91 287.727L1200.19 363.824C1199.18 365.105 1197.56 365.606 1196.04 365.049C1194.47 364.492 1193.41 362.988 1193.41 361.205V291.404C1193.41 290.011 1192.69 288.228 1191.73 287.281C1190.89 286.334 1188.71 286 1188.71 286H1173.01C1171.66 286 1170.82 286.446 1170.32 287.281L1102.07 372.236C1100.95 373.628 1100.34 375.355 1100.34 377.249L1100 403.766C1100 405.382 1100.67 406.607 1101.79 407.053C1102.69 407.387 1103.64 407.109 1104.49 406.273L1164.76 330.622C1165.77 329.341 1167.39 328.839 1168.91 329.396C1170.48 329.953 1171.54 331.458 1171.54 333.24V402.819C1171.54 404.156 1171.88 405.382 1172.55 406.217C1173.39 407.387 1174.46 408 1175.75 408H1191.5C1191.5 408 1193.69 407.053 1194.58 406.05L1255.19 330.288C1256.2 329.006 1257.88 328.505 1259.34 329.062C1260.91 329.619 1261.98 331.123 1262.37 332.906V402.318C1261.98 403.933 1262.48 405.382 1263.38 406.329C1264.22 407.22 1265.23 407.666 1266.35 407.443H1278.96C1280.09 407.666 1281.09 407.276 1281.82 406.607C1282.94 405.605 1283.67 402.652 1283.67 402.652V291.404C1283.67 290.011 1283.35 288.395 1282.45 287.448C1281.61 286.501 1280.6 286 1279.48 286" fill="#0166FC"/>
<path d="M1357.56 316.5C1357 316.5 1356.56 316.948 1356.56 317.5V339.9C1356.56 340.452 1356.11 340.9 1355.56 340.9H1330.59C1330.04 340.9 1329.59 341.348 1329.59 341.9V355.15C1329.59 355.702 1330.04 356.15 1330.59 356.15H1355.56C1356.11 356.15 1356.56 356.598 1356.56 357.15V379.55C1356.56 380.102 1357 380.55 1357.56 380.55H1372.04C1372.59 380.55 1373.04 380.102 1373.04 379.55V357.15C1373.04 356.598 1373.48 356.15 1374.04 356.15H1399C1399.55 356.15 1400 355.702 1400 355.15V341.9C1400 341.348 1399.55 340.9 1399 340.9H1374.04C1373.48 340.9 1373.04 340.452 1373.04 339.9V317.5C1373.04 316.948 1372.59 316.5 1372.04 316.5H1357.56Z" fill="#0166FC"/>
<path d="M1279.19 448H1263.6C1263.6 448 1261.42 448.836 1260.91 449.727L1200.19 525.824C1199.18 527.105 1197.56 527.606 1196.04 527.049C1194.47 526.492 1193.41 524.988 1193.41 523.205V453.404C1193.41 452.011 1192.69 450.228 1191.73 449.281C1190.89 448.334 1188.71 448 1188.71 448H1173.01C1171.66 448 1170.82 448.446 1170.32 449.281L1102.07 534.236C1100.95 535.628 1100.34 537.355 1100.34 539.249L1100 565.766C1100 567.382 1100.67 568.607 1101.79 569.053C1102.69 569.387 1103.64 569.109 1104.49 568.273L1164.76 492.622C1165.77 491.341 1167.39 490.839 1168.91 491.396C1170.48 491.953 1171.54 493.458 1171.54 495.24V564.819C1171.54 566.156 1171.88 567.382 1172.55 568.217C1173.39 569.387 1174.46 570 1175.75 570H1191.5C1191.5 570 1193.69 569.053 1194.58 568.05L1255.19 492.288C1256.2 491.006 1257.88 490.505 1259.34 491.062C1260.91 491.619 1261.98 493.123 1262.37 494.906V564.318C1261.98 565.933 1262.48 567.382 1263.38 568.329C1264.22 569.22 1265.23 569.666 1266.35 569.443H1278.96C1280.09 569.666 1281.09 569.276 1281.82 568.607C1282.94 567.605 1283.67 564.652 1283.67 564.652V453.404C1283.67 452.011 1283.35 450.395 1282.45 449.448C1281.61 448.501 1280.6 448 1279.48 448" fill="#0166FC"/>
<path d="M1357.56 478.5C1357 478.5 1356.56 478.948 1356.56 479.5V501.9C1356.56 502.452 1356.11 502.9 1355.56 502.9H1330.59C1330.04 502.9 1329.59 503.348 1329.59 503.9V517.15C1329.59 517.702 1330.04 518.15 1330.59 518.15H1355.56C1356.11 518.15 1356.56 518.598 1356.56 519.15V541.55C1356.56 542.102 1357 542.55 1357.56 542.55H1372.04C1372.59 542.55 1373.04 542.102 1373.04 541.55V519.15C1373.04 518.598 1373.48 518.15 1374.04 518.15H1399C1399.55 518.15 1400 517.702 1400 517.15V503.9C1400 503.348 1399.55 502.9 1399 502.9H1374.04C1373.48 502.9 1373.04 502.452 1373.04 501.9V479.5C1373.04 478.948 1372.59 478.5 1372.04 478.5H1357.56Z" fill="#0166FC"/>
<path d="M1279.19 610H1263.6C1263.6 610 1261.42 610.836 1260.91 611.727L1200.19 687.824C1199.18 689.105 1197.56 689.606 1196.04 689.049C1194.47 688.492 1193.41 686.988 1193.41 685.205V615.404C1193.41 614.011 1192.69 612.228 1191.73 611.281C1190.89 610.334 1188.71 610 1188.71 610H1173.01C1171.66 610 1170.82 610.446 1170.32 611.281L1102.07 696.236C1100.95 697.628 1100.34 699.355 1100.34 701.249L1100 727.766C1100 729.382 1100.67 730.607 1101.79 731.053C1102.69 731.387 1103.64 731.109 1104.49 730.273L1164.76 654.622C1165.77 653.341 1167.39 652.839 1168.91 653.396C1170.48 653.953 1171.54 655.458 1171.54 657.24V726.819C1171.54 728.156 1171.88 729.382 1172.55 730.217C1173.39 731.387 1174.46 732 1175.75 732H1191.5C1191.5 732 1193.69 731.053 1194.58 730.05L1255.19 654.288C1256.2 653.006 1257.88 652.505 1259.34 653.062C1260.91 653.619 1261.98 655.123 1262.37 656.906V726.318C1261.98 727.933 1262.48 729.382 1263.38 730.329C1264.22 731.22 1265.23 731.666 1266.35 731.443H1278.96C1280.09 731.666 1281.09 731.276 1281.82 730.607C1282.94 729.605 1283.67 726.652 1283.67 726.652V615.404C1283.67 614.011 1283.35 612.395 1282.45 611.448C1281.61 610.501 1280.6 610 1279.48 610" fill="#0166FC"/>
<path d="M1357.56 640.5C1357 640.5 1356.56 640.948 1356.56 641.5V663.9C1356.56 664.452 1356.11 664.9 1355.56 664.9H1330.59C1330.04 664.9 1329.59 665.348 1329.59 665.9V679.15C1329.59 679.702 1330.04 680.15 1330.59 680.15H1355.56C1356.11 680.15 1356.56 680.598 1356.56 681.15V703.55C1356.56 704.102 1357 704.55 1357.56 704.55H1372.04C1372.59 704.55 1373.04 704.102 1373.04 703.55V681.15C1373.04 680.598 1373.48 680.15 1374.04 680.15H1399C1399.55 680.15 1400 679.702 1400 679.15V665.9C1400 665.348 1399.55 664.9 1399 664.9H1374.04C1373.48 664.9 1373.04 664.452 1373.04 663.9V641.5C1373.04 640.948 1372.59 640.5 1372.04 640.5H1357.56Z" fill="#0166FC"/>
<path d="M1279.19 772H1263.6C1263.6 772 1261.42 772.836 1260.91 773.727L1200.19 849.824C1199.18 851.105 1197.56 851.606 1196.04 851.049C1194.47 850.492 1193.41 848.988 1193.41 847.205V777.404C1193.41 776.011 1192.69 774.228 1191.73 773.281C1190.89 772.334 1188.71 772 1188.71 772H1173.01C1171.66 772 1170.82 772.446 1170.32 773.281L1102.07 858.236C1100.95 859.628 1100.34 861.355 1100.34 863.249L1100 889.766C1100 891.382 1100.67 892.607 1101.79 893.053C1102.69 893.387 1103.64 893.109 1104.49 892.273L1164.76 816.622C1165.77 815.341 1167.39 814.839 1168.91 815.396C1170.48 815.953 1171.54 817.458 1171.54 819.24V888.819C1171.54 890.156 1171.88 891.382 1172.55 892.217C1173.39 893.387 1174.46 894 1175.75 894H1191.5C1191.5 894 1193.69 893.053 1194.58 892.05L1255.19 816.288C1256.2 815.006 1257.88 814.505 1259.34 815.062C1260.91 815.619 1261.98 817.123 1262.37 818.906V888.318C1261.98 889.933 1262.48 891.382 1263.38 892.329C1264.22 893.22 1265.23 893.666 1266.35 893.443H1278.96C1280.09 893.666 1281.09 893.276 1281.82 892.607C1282.94 891.605 1283.67 888.652 1283.67 888.652V777.404C1283.67 776.011 1283.35 774.395 1282.45 773.448C1281.61 772.501 1280.6 772 1279.48 772" fill="#0166FC"/>
<path d="M1357.56 802.5C1357 802.5 1356.56 802.948 1356.56 803.5V825.9C1356.56 826.452 1356.11 826.9 1355.56 826.9H1330.59C1330.04 826.9 1329.59 827.348 1329.59 827.9V841.15C1329.59 841.702 1330.04 842.15 1330.59 842.15H1355.56C1356.11 842.15 1356.56 842.598 1356.56 843.15V865.55C1356.56 866.102 1357 866.55 1357.56 866.55H1372.04C1372.59 866.55 1373.04 866.102 1373.04 865.55V843.15C1373.04 842.598 1373.48 842.15 1374.04 842.15H1399C1399.55 842.15 1400 841.702 1400 841.15V827.9C1400 827.348 1399.55 826.9 1399 826.9H1374.04C1373.48 826.9 1373.04 826.452 1373.04 825.9V803.5C1373.04 802.948 1372.59 802.5 1372.04 802.5H1357.56Z" fill="#0166FC"/>
<path d="M1279.19 934H1263.6C1263.6 934 1261.42 934.836 1260.91 935.727L1200.19 1011.82C1199.18 1013.11 1197.56 1013.61 1196.04 1013.05C1194.47 1012.49 1193.41 1010.99 1193.41 1009.21V939.404C1193.41 938.011 1192.69 936.228 1191.73 935.281C1190.89 934.334 1188.71 934 1188.71 934H1173.01C1171.66 934 1170.82 934.446 1170.32 935.281L1102.07 1020.24C1100.95 1021.63 1100.34 1023.36 1100.34 1025.25L1100 1051.77C1100 1053.38 1100.67 1054.61 1101.79 1055.05C1102.69 1055.39 1103.64 1055.11 1104.49 1054.27L1164.76 978.622C1165.77 977.341 1167.39 976.839 1168.91 977.396C1170.48 977.953 1171.54 979.458 1171.54 981.24V1050.82C1171.54 1052.16 1171.88 1053.38 1172.55 1054.22C1173.39 1055.39 1174.46 1056 1175.75 1056H1191.5C1191.5 1056 1193.69 1055.05 1194.58 1054.05L1255.19 978.288C1256.2 977.006 1257.88 976.505 1259.34 977.062C1260.91 977.619 1261.98 979.123 1262.37 980.906V1050.32C1261.98 1051.93 1262.48 1053.38 1263.38 1054.33C1264.22 1055.22 1265.23 1055.67 1266.35 1055.44H1278.96C1280.09 1055.67 1281.09 1055.28 1281.82 1054.61C1282.94 1053.6 1283.67 1050.65 1283.67 1050.65V939.404C1283.67 938.011 1283.35 936.395 1282.45 935.448C1281.61 934.501 1280.6 934 1279.48 934" fill="#0166FC"/>
<path d="M1357.56 964.5C1357 964.5 1356.56 964.948 1356.56 965.5V987.9C1356.56 988.452 1356.11 988.9 1355.56 988.9H1330.59C1330.04 988.9 1329.59 989.348 1329.59 989.9V1003.15C1329.59 1003.7 1330.04 1004.15 1330.59 1004.15H1355.56C1356.11 1004.15 1356.56 1004.6 1356.56 1005.15V1027.55C1356.56 1028.1 1357 1028.55 1357.56 1028.55H1372.04C1372.59 1028.55 1373.04 1028.1 1373.04 1027.55V1005.15C1373.04 1004.6 1373.48 1004.15 1374.04 1004.15H1399C1399.55 1004.15 1400 1003.7 1400 1003.15V989.9C1400 989.348 1399.55 988.9 1399 988.9H1374.04C1373.48 988.9 1373.04 988.452 1373.04 987.9V965.5C1373.04 964.948 1372.59 964.5 1372.04 964.5H1357.56Z" fill="#0166FC"/>
</g>
<defs>
<clipPath id="clip0_2440_99">
<rect width="1440" height="1024" fill="white"/>
</clipPath>
</defs>
</svg>
