<svg width="220" height="37" viewBox="0 0 220 37" fill="none" xmlns="http://www.w3.org/2000/svg">
<path d="M133.179 27.8267C133.25 28.0197 133.25 28.1673 133.179 28.2694C133.155 28.3035 133.096 28.3943 132.858 28.3943H125.389C125.259 28.3943 125.164 28.3603 125.105 28.2808C125.057 28.224 124.998 28.1105 125.057 27.8267L128.804 18.0289C128.875 17.8472 128.981 17.7337 129.1 17.7337C129.195 17.7337 129.313 17.8018 129.361 18.0175L133.179 27.8267ZM141.051 34.0482L132.728 13.2946C132.455 12.602 131.791 12.1593 131.056 12.1593H127.12C126.373 12.1593 125.721 12.602 125.448 13.3059L116.711 35.3198L116.592 35.6263C116.379 36.1939 116.817 36.7957 117.446 36.7957H120.813H120.967L122.496 32.4815L123.374 32.595H134.957H135.17H135.562H135.763L137.233 36.6481L137.269 36.7957H140.802C141.442 36.7957 141.881 36.1826 141.656 35.6149L141.051 34.0482Z" fill="white"/>
<path d="M116.011 29.8815L114.031 28.3148C113.782 28.1331 113.533 28.0537 113.308 28.0764C113 28.1104 112.751 28.3488 112.596 28.5305L112.573 28.5646C111.684 29.9269 110.557 30.9374 109.217 31.5731C107.878 32.2089 106.159 32.5268 104.108 32.5268C101.499 32.5268 99.4244 31.9251 97.9424 30.7557C96.4604 29.575 95.7372 27.7585 95.7372 25.204V23.8076C95.7491 18.9598 98.5589 16.5075 104.108 16.5075C107.866 16.5075 110.616 17.745 112.288 20.1746L112.324 20.2086C112.798 20.6968 113.296 20.7422 113.806 20.3222L115.762 18.5738C115.987 18.3921 116.118 18.1991 116.153 17.9834C116.189 17.745 116.118 17.4839 115.928 17.2341C113.687 13.7941 109.715 12.0457 104.108 12.0457C95.4527 12.0457 91.2319 15.9058 91.2319 23.8416V25.17C91.2319 33.1285 95.4408 37 104.108 37C109.668 37 113.735 35.0926 116.177 31.3461L116.213 31.3007C116.379 31.1077 116.45 30.8693 116.402 30.5854C116.379 30.2789 116.248 30.0518 116.011 29.8815Z" fill="white"/>
<path d="M166.648 12.1593H163.897C163.648 12.1593 163.423 12.2615 163.245 12.4545C163.067 12.6588 162.972 12.8972 162.972 13.1811V26.9525C162.972 27.452 162.629 27.7472 162.297 27.8607C161.977 27.9629 161.514 27.9402 161.194 27.5542L148.686 12.4431C148.567 12.2615 148.378 12.1593 148.105 12.1593H144.773C144.525 12.1593 144.311 12.2615 144.145 12.4545C143.967 12.6588 143.884 12.9086 143.884 13.1811V35.8874C143.884 36.1712 143.979 36.4097 144.145 36.614C144.323 36.807 144.525 36.9092 144.773 36.9092H147.571C147.82 36.9092 148.046 36.807 148.224 36.6254C148.401 36.421 148.508 36.1826 148.508 35.8988V19.3572L162.795 36.6367C162.913 36.8184 163.103 36.9092 163.376 36.9092H166.672C166.92 36.9092 167.134 36.807 167.312 36.6254C167.501 36.421 167.596 36.1826 167.596 35.8988V13.147C167.596 12.8518 167.501 12.602 167.312 12.409C167.146 12.2274 166.92 12.1252 166.683 12.1252" fill="white"/>
<path d="M198.422 12.0457H195.636C195.387 12.0457 195.174 12.1479 195.008 12.3409C194.83 12.5452 194.735 12.795 194.735 13.0675V35.7738C194.735 36.0577 194.83 36.3074 195.008 36.5004C195.186 36.6934 195.387 36.7956 195.636 36.7956H198.47C198.73 36.7956 198.944 36.6934 199.11 36.5004C199.276 36.2961 199.371 36.0463 199.371 35.7738V13.0675C199.371 12.7836 199.276 12.5225 199.098 12.3295C198.932 12.1479 198.719 12.0457 198.47 12.0457" fill="white"/>
<path d="M219.656 32.5382C219.478 32.3452 219.253 32.2543 219.004 32.2543H208.642C207.847 32.2543 207.195 31.6299 207.195 30.8692V13.0788C207.195 12.7836 207.101 12.5339 206.923 12.3295C206.745 12.1479 206.543 12.0457 206.294 12.0457H203.473C203.224 12.0457 203.01 12.1479 202.844 12.3409C202.666 12.5452 202.572 12.795 202.572 13.0675V35.7738C202.572 36.0577 202.666 36.2961 202.832 36.5004C203.01 36.6934 203.212 36.7956 203.461 36.7956H219.051C219.3 36.7956 219.526 36.6934 219.703 36.5118C219.893 36.3074 220 36.0577 220 35.7738V33.2194C220 32.9469 219.893 32.6971 219.703 32.4928" fill="white"/>
<path d="M84.7942 20.1973C84.7942 21.5711 84.4148 22.5815 83.6441 23.2627C82.8616 23.9552 81.7472 24.3072 80.3482 24.3072H70.8634V18.0289C70.8871 17.8018 71.0649 16.7005 72.3098 16.7005H80.36C81.842 16.7005 82.9683 16.9617 83.7271 17.4726C84.4385 17.9835 84.7942 18.869 84.7942 20.1973ZM89.4773 20.1746C89.4773 17.3023 88.7304 15.2246 87.2602 13.9871C85.8138 12.7723 83.5967 12.1593 80.6564 12.1593H67.1287C66.8797 12.1593 66.6663 12.2615 66.5003 12.4545C66.3225 12.6588 66.2277 12.8972 66.2277 13.1811V35.7739C66.2277 36.0577 66.3225 36.3075 66.5003 36.5005C66.6663 36.6935 66.8797 36.7957 67.1169 36.7957H69.8082C70.0453 36.7957 70.2587 36.6935 70.4484 36.5118C70.6381 36.3075 70.7329 36.0577 70.7329 35.7852V28.6327H79.0203L84.2132 36.1145C84.5452 36.5686 85.0194 36.807 85.6122 36.807H88.0309C88.5288 36.807 88.8726 36.5913 89.0742 36.1599C89.2757 35.7171 89.2046 35.263 88.8845 34.8316L84.1065 28.0878L84.5689 27.9288C87.8412 26.8276 89.4891 24.205 89.4891 20.1292" fill="white"/>
<path d="M191.688 12.568L191.842 12.4317C191.664 12.2501 191.451 12.1593 191.213 12.1593H170.548C170.299 12.1593 170.086 12.2615 169.896 12.4545C169.707 12.6588 169.612 12.9086 169.612 13.1924V15.7128C169.612 16.008 169.707 16.2691 169.908 16.4508C170.086 16.6211 170.311 16.7119 170.548 16.7119H178.622V35.7966C178.622 36.0804 178.717 36.3302 178.907 36.5232C179.085 36.7162 179.298 36.807 179.547 36.807H182.333C182.582 36.807 182.808 36.7048 182.974 36.5118C183.151 36.3075 183.246 36.0691 183.246 35.7852V17.8359L183.258 17.7791C183.4 17.0298 183.922 16.587 184.681 16.587H191.225C191.462 16.587 191.676 16.4962 191.854 16.3259C192.043 16.1329 192.138 15.8945 192.138 15.622V13.1584C192.138 12.8632 192.043 12.6248 191.854 12.4317L191.688 12.568Z" fill="white"/>
<path d="M63.2637 32.2544H50.9335V26.9184H54.8104C55.2253 26.9184 55.5573 26.5437 55.5573 26.0896V22.7404C55.5573 22.2863 55.2135 21.923 54.8104 21.923H50.9335V17.9153C51.0757 17.1433 51.5974 16.7005 52.3799 16.7005H63.2044C63.4534 16.7005 63.6549 16.6097 63.8209 16.4281C63.9988 16.2351 64.0936 15.9966 64.0936 15.7015V13.1811C64.0936 12.8859 63.9988 12.6361 63.8209 12.4317C63.6549 12.2501 63.4415 12.1479 63.1926 12.1479H47.2462C46.9736 12.1479 46.7364 12.2615 46.5586 12.4545C46.3926 12.6475 46.2978 12.8972 46.2978 13.1811V21.9117H42.5513C42.1363 21.9117 41.7925 22.275 41.7925 22.7291V25.9874C41.7925 26.4416 42.1363 26.8049 42.5513 26.8049H46.274L46.2978 27.1682V35.263C46.2978 35.8306 46.4045 36.2167 46.6297 36.4551C46.7127 36.5345 46.9498 36.7957 47.7086 36.7957H63.2874C63.5364 36.7957 63.7498 36.7048 63.9158 36.5232C64.1055 36.3302 64.2122 36.035 64.2122 35.6944V33.2308C64.2122 32.9356 64.1173 32.6858 63.9276 32.4701C63.7379 32.2771 63.5364 32.1863 63.2874 32.1863" fill="white"/>
<path d="M37.8918 12.0457H34.5958C34.5958 12.0457 34.1334 12.216 34.0267 12.3976L21.1867 27.9061C20.9733 28.1672 20.6294 28.2694 20.3093 28.1558C19.9774 28.0423 19.7521 27.7358 19.7521 27.3725V13.1469C19.7521 12.8631 19.6573 12.6133 19.4557 12.4203C19.2779 12.2273 18.8155 12.1592 18.8155 12.1592H15.4958C15.2112 12.1592 15.0334 12.25 14.9267 12.4203L0.438672 29.6204C0.201552 29.9042 0.0711358 30.2562 0.0711358 30.6422L0 36.0463C0 36.3755 0.142272 36.6253 0.379392 36.7161C0.569088 36.7843 0.77064 36.7275 0.94848 36.5572L13.6937 21.1396C13.9071 20.8785 14.2509 20.7763 14.571 20.8898C14.903 21.0033 15.1283 21.3099 15.1283 21.6732V35.8533C15.1283 36.1258 15.1994 36.3755 15.3417 36.5458C15.5195 36.7843 15.7448 36.9091 16.0175 36.9091H19.349C19.349 36.9091 19.8114 36.7161 20.0011 36.5118L32.8174 21.0715C33.0308 20.8103 33.3865 20.7082 33.6948 20.8217C34.0267 20.9352 34.252 21.2418 34.335 21.6051V35.7511C34.252 36.0804 34.3587 36.3755 34.5484 36.5685C34.7262 36.7502 34.9396 36.841 35.1768 36.7956H37.8444C38.0815 36.841 38.2949 36.7616 38.449 36.6253C38.6861 36.421 38.8403 35.8192 38.8403 35.8192V13.1469C38.8403 12.8631 38.7454 12.6133 38.5557 12.4203C38.3779 12.2273 38.1645 12.1252 37.9273 12.1252" fill="white"/>
<path d="M20.4161 5.91499C21.0326 5.91499 21.3409 5.67657 21.3409 5.19974C21.3409 4.76832 21.0563 4.55261 20.4991 4.55261H17.0253C16.9423 4.55261 16.8949 4.59802 16.9067 4.67749V5.80146C16.9067 5.88093 16.9423 5.91499 17.0253 5.91499H20.4161ZM20.0011 3.19023C20.4991 3.19023 20.8311 2.92911 20.8311 2.53175C20.8311 2.13438 20.5821 1.94138 20.0723 1.94138H17.0371C16.9541 1.94138 16.9067 1.98679 16.9186 2.06626V3.0767C16.9186 3.15617 16.9541 3.20158 17.0371 3.20158H20.0011V3.19023ZM15.3654 7.61797C15.1757 7.61797 15.0335 7.48173 15.0098 7.28873V0.590352C15.0335 0.397348 15.1757 0.26111 15.3773 0.227051H20.4754C22.0048 0.26111 22.8584 0.908241 22.8584 2.07762C22.8584 2.77016 22.5739 3.29241 22.0167 3.62165C21.9455 3.67842 21.9455 3.72383 22.0285 3.75789C22.894 3.9963 23.4157 4.62073 23.4157 5.43816C23.4157 6.88001 22.4553 7.59526 20.8311 7.59526L15.3654 7.61797Z" fill="white"/>
<path d="M30.1023 5.00684C30.209 5.00684 30.2446 4.96142 30.209 4.85925L28.9641 2.13448C28.9404 2.0323 28.8337 2.0323 28.7863 2.13448L27.5651 4.85925C27.5414 4.96142 27.577 5.00684 27.6718 5.00684H30.1023ZM24.8145 7.61807C24.6723 7.61807 24.5537 7.5613 24.4826 7.44777C24.4114 7.34559 24.3996 7.22071 24.4589 7.09582L27.577 0.408801C27.6363 0.295269 27.7311 0.22715 27.8615 0.238503H29.9126C30.0549 0.238503 30.1379 0.295269 30.1853 0.408801L33.3271 7.09582C33.4457 7.35694 33.2797 7.61807 32.9715 7.61807H31.6792C31.5369 7.61807 31.4302 7.54995 31.3828 7.41371L31.0034 6.57357C30.9797 6.51681 30.9322 6.48275 30.8611 6.48275H26.9368C26.8656 6.48275 26.8063 6.51681 26.7826 6.57357L26.4032 7.41371C26.3558 7.54995 26.2491 7.61807 26.1068 7.61807H24.8145Z" fill="white"/>
<path d="M42.7526 0.363258C42.9541 0.363258 43.1083 0.488143 43.1083 0.681147V7.28869C43.1083 7.47035 42.9541 7.61794 42.7644 7.61794H41.1046C41.0098 7.61794 40.9386 7.58388 40.8912 7.51576L36.9787 3.11073C36.9194 3.03125 36.8127 3.05396 36.8127 3.16749V7.28869C36.8127 7.47035 36.6586 7.61794 36.4689 7.61794H35.2596C35.0699 7.61794 34.9158 7.47035 34.9158 7.28869V0.601674C34.9158 0.601674 35.0818 0.272432 35.2833 0.238373H36.789C36.8839 0.272432 36.955 0.306492 37.0024 0.351905L40.9623 4.75694C41.0335 4.82506 41.1283 4.80235 41.0927 4.68882V0.601674C41.1283 0.40867 41.4603 0.363258 41.4603 0.363258H42.7526Z" fill="white"/>
<path d="M53.7194 5.68794C53.8973 5.80147 53.9091 6.00583 53.7906 6.15342C52.8658 7.3228 51.4312 7.90181 49.4869 7.90181C46.4161 7.90181 44.8867 6.65296 44.8867 4.13256V3.7579C44.8867 1.2602 46.4161 0 49.4869 0C51.4312 0 52.8302 0.522246 53.6602 1.55539C53.7787 1.70298 53.755 1.90733 53.6009 2.00951L52.6405 2.80423C52.439 2.96318 52.2374 2.94047 52.0359 2.74747C51.4431 2.10034 50.5895 1.78245 49.4869 1.78245C47.7559 1.78245 46.9022 2.44093 46.9022 3.7579V4.16662C46.9022 5.47223 47.7677 6.13072 49.4869 6.13072C50.708 6.13072 51.5972 5.77877 52.1545 5.08622C52.3441 4.88187 52.5338 4.85916 52.7473 5.00675L53.7194 5.68794Z" fill="white"/>
<path d="M61.331 5.64274C61.8289 5.3362 62.0779 4.84802 62.0779 4.15547V3.74676C62.0779 2.4525 61.165 1.80536 59.3392 1.80536C58.5567 1.80536 57.952 1.93025 57.4304 2.21408C56.9087 2.49791 56.6123 3.03151 56.6123 3.74676V4.15547C56.6123 4.84802 56.8613 5.3362 57.3711 5.64274C57.869 5.94927 58.5211 6.09686 59.3392 6.09686C60.1691 6.08551 60.833 5.93792 61.331 5.64274ZM54.6086 4.09871V3.75811C54.6086 1.35124 56.1736 0.0796814 59.2799 0.0796814C62.4099 0.0796814 63.9749 1.35124 63.9749 3.75811V4.13277C63.9749 6.56234 62.4099 7.82255 59.2799 7.82255C56.1618 7.82255 54.6086 6.5964 54.6086 4.13277" fill="white"/>
</svg>
