<svg width="234" height="41" viewBox="0 0 234 41" fill="none" xmlns="http://www.w3.org/2000/svg">
<path d="M141.654 30.8349C141.729 31.0488 141.729 31.2123 141.654 31.3256C141.628 31.3633 141.565 31.464 141.313 31.464H133.368C133.23 31.464 133.129 31.4262 133.066 31.3381C133.015 31.2752 132.952 31.1494 133.015 30.8349L137 19.9779C137.076 19.7766 137.189 19.6508 137.316 19.6508C137.416 19.6508 137.543 19.7263 137.593 19.9653L141.654 30.8349ZM150.027 37.7291L141.174 14.7318C140.884 13.9644 140.178 13.4738 139.396 13.4738H135.21C134.415 13.4738 133.722 13.9644 133.431 14.7444L124.138 39.1381L124.011 39.4778C123.784 40.1068 124.251 40.7736 124.919 40.7736H128.501H128.665L130.291 35.993L131.225 36.1188H143.545H143.772H144.188H144.403L145.966 40.61L146.004 40.7736H149.762C150.443 40.7736 150.91 40.0942 150.67 39.4652L150.027 37.7291Z" fill="#1526FF"/>
<path d="M123.393 33.112L121.288 31.3759C121.023 31.1746 120.758 31.0865 120.518 31.1117C120.19 31.1494 119.926 31.4136 119.762 31.6149L119.736 31.6527C118.791 33.1623 117.593 34.282 116.168 34.9865C114.743 35.691 112.914 36.0433 110.733 36.0433C107.958 36.0433 105.751 35.3765 104.175 34.0807C102.599 32.7723 101.83 30.7595 101.83 27.9288V26.3814C101.842 21.0095 104.831 18.2921 110.733 18.2921C114.73 18.2921 117.656 19.6634 119.434 22.3556L119.472 22.3934C119.976 22.9344 120.506 22.9847 121.048 22.5192L123.129 20.5818C123.368 20.3805 123.507 20.1666 123.545 19.9276C123.583 19.6634 123.507 19.3741 123.305 19.0973C120.922 15.2854 116.697 13.348 110.733 13.348C101.527 13.348 97.0376 17.6254 97.0376 26.4192V27.8911C97.0376 36.71 101.514 41 110.733 41C116.647 41 120.972 38.8865 123.57 34.7349L123.608 34.6846C123.784 34.4707 123.86 34.2065 123.81 33.892C123.784 33.5523 123.646 33.3007 123.393 33.112Z" fill="#1526FF"/>
<path d="M177.253 13.4738H174.327C174.062 13.4738 173.823 13.587 173.634 13.8009C173.444 14.0273 173.344 14.2915 173.344 14.606V29.8662C173.344 30.4198 172.978 30.7469 172.625 30.8727C172.284 30.9859 171.792 30.9607 171.452 30.533L158.148 13.7883C158.022 13.587 157.82 13.4738 157.53 13.4738H153.986C153.722 13.4738 153.495 13.587 153.318 13.8009C153.129 14.0273 153.041 14.3041 153.041 14.606V39.7671C153.041 40.0816 153.142 40.3458 153.318 40.5723C153.507 40.7862 153.722 40.8994 153.986 40.8994H156.963C157.227 40.8994 157.467 40.7862 157.656 40.5849C157.845 40.3584 157.959 40.0942 157.959 39.7797V21.4499L173.154 40.5974C173.28 40.7987 173.482 40.8994 173.772 40.8994H177.278C177.543 40.8994 177.77 40.7862 177.959 40.5849C178.161 40.3584 178.262 40.0942 178.262 39.7797V14.5683C178.262 14.2412 178.161 13.9644 177.959 13.7506C177.782 13.5493 177.543 13.4361 177.291 13.4361" fill="#1526FF"/>
<path d="M211.049 13.348H208.085C207.821 13.348 207.594 13.4612 207.417 13.6751C207.228 13.9015 207.127 14.1783 207.127 14.4802V39.6413C207.127 39.9558 207.228 40.2326 207.417 40.4465C207.606 40.6603 207.821 40.7736 208.085 40.7736H211.099C211.377 40.7736 211.604 40.6603 211.78 40.4465C211.957 40.22 212.058 39.9433 212.058 39.6413V14.4802C212.058 14.1657 211.957 13.8764 211.768 13.6625C211.591 13.4612 211.364 13.348 211.099 13.348" fill="#1526FF"/>
<path d="M233.634 36.0559C233.445 35.842 233.206 35.7413 232.941 35.7413H221.919C221.074 35.7413 220.381 35.0494 220.381 34.2065V14.4928C220.381 14.1657 220.28 13.8889 220.091 13.6625C219.902 13.4612 219.687 13.348 219.422 13.348H216.421C216.156 13.348 215.929 13.4612 215.753 13.6751C215.564 13.9015 215.463 14.1783 215.463 14.4802V39.6413C215.463 39.9558 215.564 40.22 215.74 40.4465C215.929 40.6603 216.144 40.7736 216.408 40.7736H232.991C233.256 40.7736 233.496 40.6603 233.685 40.4591C233.887 40.2326 234 39.9558 234 39.6413V36.8107C234 36.5088 233.887 36.232 233.685 36.0055" fill="#1526FF"/>
<path d="M90.1901 22.3808C90.1901 23.903 89.7866 25.0227 88.9669 25.7775C88.1346 26.545 86.9493 26.935 85.4612 26.935H75.3728V19.9779C75.3981 19.7263 75.5872 18.506 76.9113 18.506H85.4738C87.0501 18.506 88.2481 18.7953 89.0552 19.3615C89.8118 19.9276 90.1901 20.9089 90.1901 22.3808ZM95.1713 22.3556C95.1713 19.1728 94.3768 16.8705 92.8131 15.4992C91.2746 14.1531 88.9165 13.4738 85.7891 13.4738H71.4005C71.1357 13.4738 70.9087 13.587 70.7322 13.8009C70.543 14.0273 70.4421 14.2915 70.4421 14.606V39.6413C70.4421 39.9558 70.543 40.2326 70.7322 40.4465C70.9087 40.6603 71.1357 40.7736 71.3879 40.7736H74.2505C74.5027 40.7736 74.7297 40.6603 74.9315 40.459C75.1332 40.2326 75.2341 39.9558 75.2341 39.6539V31.7281H84.0488L89.5722 40.0187C89.9253 40.5219 90.4297 40.7861 91.0603 40.7861H93.6328C94.1624 40.7861 94.5281 40.5471 94.7425 40.069C94.9569 39.5784 94.8812 39.0752 94.5408 38.5971L89.4587 31.1243L89.9505 30.9481C93.431 29.7278 95.1839 26.8217 95.1839 22.3053" fill="#1526FF"/>
<path d="M203.886 13.9267L204.05 13.7757C203.861 13.5744 203.634 13.4738 203.382 13.4738H181.402C181.137 13.4738 180.91 13.587 180.708 13.8009C180.506 14.0273 180.405 14.3041 180.405 14.6186V17.4115C180.405 17.7386 180.506 18.0279 180.721 18.2292C180.91 18.4179 181.149 18.5186 181.402 18.5186H189.989V39.6665C189.989 39.981 190.09 40.2577 190.292 40.4716C190.481 40.6855 190.708 40.7861 190.973 40.7861H193.936C194.201 40.7861 194.441 40.6729 194.617 40.459C194.807 40.2326 194.907 39.9684 194.907 39.6539V19.764L194.92 19.7011C195.071 18.8708 195.626 18.3802 196.433 18.3802H203.394C203.646 18.3802 203.873 18.2795 204.063 18.0908C204.264 17.877 204.365 17.6128 204.365 17.3108V14.5809C204.365 14.2538 204.264 13.9896 204.063 13.7757L203.886 13.9267Z" fill="#1526FF"/>
<path d="M67.2896 35.7413H54.1747V29.8285H58.2983C58.7397 29.8285 59.0928 29.4133 59.0928 28.9101V25.1988C59.0928 24.6956 58.7271 24.293 58.2983 24.293H54.1747V19.8521C54.326 18.9966 54.8809 18.506 55.7132 18.506H67.2265C67.4914 18.506 67.7057 18.4054 67.8823 18.2041C68.0714 17.9902 68.1723 17.726 68.1723 17.3989V14.606C68.1723 14.2789 68.0714 14.0022 67.8823 13.7757C67.7057 13.5744 67.4788 13.4612 67.2139 13.4612H50.2528C49.9628 13.4612 49.7106 13.587 49.5214 13.8009C49.3449 14.0147 49.244 14.2915 49.244 14.606V24.2805H45.2591C44.8177 24.2805 44.452 24.683 44.452 25.1863V28.7969C44.452 29.3001 44.8177 29.7027 45.2591 29.7027H49.2188L49.244 30.1053V39.0752C49.244 39.7042 49.3575 40.132 49.5971 40.3961C49.6854 40.4842 49.9376 40.7736 50.7447 40.7736H67.3148C67.5796 40.7736 67.8066 40.6729 67.9832 40.4716C68.1849 40.2578 68.2984 39.9307 68.2984 39.5532V36.8233C68.2984 36.4962 68.1976 36.2194 67.9958 35.9804C67.794 35.7665 67.5796 35.6659 67.3148 35.6659" fill="#1526FF"/>
<path d="M40.3031 13.348H36.7974C36.7974 13.348 36.3056 13.5367 36.1921 13.738L22.5349 30.923C22.3079 31.2124 21.9422 31.3256 21.6017 31.1998C21.2487 31.074 21.0091 30.7343 21.0091 30.3317V14.5683C21.0091 14.2538 20.9082 13.977 20.6938 13.7631C20.5046 13.5493 20.0128 13.4738 20.0128 13.4738H16.4819C16.1792 13.4738 15.9901 13.5744 15.8766 13.7631L0.466588 32.8227C0.214378 33.1372 0.0756627 33.5272 0.0756627 33.9549L0 39.9433C0 40.3081 0.151326 40.5849 0.403535 40.6855C0.605303 40.761 0.819681 40.6981 1.00884 40.5094L14.5651 23.425C14.7921 23.1356 15.1578 23.0224 15.4983 23.1482C15.8514 23.274 16.091 23.6137 16.091 24.0163V39.7294C16.091 40.0313 16.1666 40.3081 16.318 40.4968C16.5071 40.761 16.7467 40.8994 17.0368 40.8994H20.5803C20.5803 40.8994 21.0721 40.6855 21.2739 40.4591L34.9058 23.3495C35.1328 23.0602 35.5111 22.9469 35.839 23.0727C36.1921 23.1985 36.4317 23.5382 36.5199 23.9408V39.6162C36.4317 39.981 36.5452 40.3081 36.7469 40.522C36.9361 40.7232 37.1631 40.8239 37.4153 40.7736H40.2526C40.5048 40.8239 40.7318 40.7358 40.8958 40.5849C41.148 40.3584 41.3119 39.6916 41.3119 39.6916V14.5683C41.3119 14.2538 41.211 13.977 41.0093 13.7631C40.8201 13.5493 40.5931 13.436 40.3409 13.436" fill="#1526FF"/>
<path d="M21.7152 6.55449C22.371 6.55449 22.6988 6.29029 22.6988 5.76191C22.6988 5.28385 22.3962 5.04482 21.8035 5.04482H18.1086C18.0204 5.04482 17.9699 5.09514 17.9825 5.18321V6.42868C17.9825 6.51674 18.0204 6.55449 18.1086 6.55449H21.7152ZM21.2739 3.53516C21.8035 3.53516 22.1566 3.2458 22.1566 2.80548C22.1566 2.36516 21.8918 2.1513 21.3495 2.1513H18.1212C18.033 2.1513 17.9825 2.20162 17.9951 2.28968V3.40935C17.9951 3.49741 18.033 3.54774 18.1212 3.54774H21.2739V3.53516ZM16.3432 8.44157C16.1414 8.44157 15.9901 8.2906 15.9648 8.07673V0.65421C15.9901 0.440341 16.1414 0.289374 16.3558 0.251633H21.7783C23.405 0.289374 24.313 1.00647 24.313 2.30226C24.313 3.06967 24.0103 3.64838 23.4176 4.01322C23.342 4.07612 23.342 4.12644 23.4302 4.16418C24.3508 4.42837 24.9057 5.1203 24.9057 6.0261C24.9057 7.62383 23.8842 8.41641 22.1566 8.41641L16.3432 8.44157Z" fill="#1526FF"/>
<path d="M32.0179 5.54802C32.1314 5.54802 32.1693 5.4977 32.1314 5.38448L30.8073 2.36515C30.7821 2.25192 30.6686 2.25192 30.6182 2.36515L29.3193 5.38448C29.2941 5.4977 29.3319 5.54802 29.4328 5.54802H32.0179ZM26.3937 8.44155C26.2423 8.44155 26.1162 8.37865 26.0406 8.25284C25.9649 8.13962 25.9523 8.00123 26.0153 7.86284L29.3319 0.452903C29.395 0.327097 29.4958 0.251614 29.6346 0.264195H31.8162C31.9675 0.264195 32.0558 0.327097 32.1062 0.452903L35.448 7.86284C35.5741 8.1522 35.3975 8.44155 35.0697 8.44155H33.6951C33.5438 8.44155 33.4303 8.36607 33.3799 8.2151L32.9763 7.28414C32.9511 7.22124 32.9007 7.18349 32.825 7.18349H28.6509C28.5753 7.18349 28.5122 7.22124 28.487 7.28414L28.0835 8.2151C28.033 8.36607 27.9195 8.44155 27.7682 8.44155H26.3937Z" fill="#1526FF"/>
<path d="M45.4733 0.402592C45.6877 0.402592 45.8517 0.540978 45.8517 0.754847V8.07673C45.8517 8.27801 45.6877 8.44156 45.4859 8.44156H43.7205C43.6196 8.44156 43.5439 8.40382 43.4935 8.32834L39.332 3.44708C39.269 3.35902 39.1555 3.38418 39.1555 3.50999V8.07673C39.1555 8.27801 38.9916 8.44156 38.7898 8.44156H37.5035C37.3018 8.44156 37.1378 8.27801 37.1378 8.07673V0.666783C37.1378 0.666783 37.3144 0.301948 37.5287 0.264206H39.1303C39.2312 0.301948 39.3068 0.339689 39.3573 0.390011L43.5692 5.27126C43.6448 5.34675 43.7457 5.32159 43.7079 5.19578V0.666783C43.7457 0.452914 44.0988 0.402592 44.0988 0.402592H45.4733Z" fill="#1526FF"/>
<path d="M57.138 6.30285C57.3272 6.42866 57.3398 6.65511 57.2137 6.81866C56.2301 8.11445 54.7042 8.75606 52.6361 8.75606C49.37 8.75606 47.7432 7.3722 47.7432 4.57932V4.16416C47.7432 1.39644 49.37 0 52.6361 0C54.7042 0 56.1922 0.578705 57.075 1.72353C57.2011 1.88708 57.1759 2.11353 57.0119 2.22676L55.9905 3.10739C55.7761 3.28352 55.5617 3.25836 55.3473 3.04449C54.7168 2.3274 53.8089 1.97515 52.6361 1.97515C50.795 1.97515 49.887 2.70482 49.887 4.16416V4.61706C49.887 6.06382 50.8076 6.7935 52.6361 6.7935C53.935 6.7935 54.8808 6.4035 55.4734 5.63609C55.6752 5.40964 55.877 5.38447 56.104 5.54802L57.138 6.30285Z" fill="#1526FF"/>
<path d="M65.234 6.25278C65.7636 5.9131 66.0285 5.37214 66.0285 4.60473V4.15183C66.0285 2.71764 65.0575 2.00055 63.1154 2.00055C62.2832 2.00055 61.64 2.13894 61.0852 2.45345C60.5303 2.76797 60.215 3.35925 60.215 4.15183V4.60473C60.215 5.37214 60.4799 5.9131 61.0221 6.25278C61.5517 6.59245 62.2453 6.756 63.1154 6.756C63.9982 6.74342 64.7044 6.57987 65.234 6.25278ZM58.0839 4.54182V4.16441C58.0839 1.49733 59.7484 0.0883102 63.0524 0.0883102C66.3816 0.0883102 68.0461 1.49733 68.0461 4.16441V4.57957C68.0461 7.2718 66.3816 8.66824 63.0524 8.66824C59.7358 8.66824 58.0839 7.30954 58.0839 4.57957" fill="#1526FF"/>
</svg>
