<svg width="184" height="122" viewBox="0 0 184 122" fill="none" xmlns="http://www.w3.org/2000/svg">
<path d="M179.188 0H163.602C163.602 0 161.415 0.83562 160.911 1.72694L100.191 77.8237C99.1814 79.105 97.5555 79.6064 96.0417 79.0493C94.4719 78.4922 93.4066 76.9881 93.4066 75.2055V5.40365C93.4066 4.01096 92.6876 2.22831 91.7345 1.28128C90.8935 0.334248 88.7069 0 88.7069 0H73.0083C71.6627 0 70.8217 0.445664 70.3171 1.28128L2.07446 86.2356C0.953129 87.6283 0.336397 89.3552 0.336397 91.2493L0 117.766C0 119.382 0.672797 120.607 1.79412 121.053C2.69119 121.387 3.64432 121.109 4.48531 120.273L64.7567 44.6219C65.7659 43.3406 67.3918 42.8393 68.9056 43.3963C70.4755 43.9534 71.5407 45.4575 71.5407 47.2402V116.819C71.5407 118.156 71.8771 119.382 72.5499 120.217C73.3909 121.387 74.4562 122 75.7457 122H91.5003C91.5003 122 93.6869 121.053 94.584 120.05L155.192 44.2877C156.201 43.0064 157.883 42.505 159.341 43.0621C160.911 43.6192 161.976 45.1233 162.368 46.9059V116.318C161.976 117.933 162.48 119.382 163.377 120.329C164.218 121.22 165.228 121.666 166.349 121.443H178.964C180.085 121.666 181.094 121.276 181.823 120.607C182.945 119.605 183.673 116.652 183.673 116.652V5.40365C183.673 4.01096 183.347 2.39543 182.45 1.4484C181.609 0.501369 180.6 0 179.479 0" fill="#0166FC"/>
</svg>
