<svg width="71" height="65" viewBox="0 0 71 65" fill="none" xmlns="http://www.w3.org/2000/svg">
<path d="M28.5566 0.5C28.0043 0.5 27.5566 0.947715 27.5566 1.5V23.9C27.5566 24.4523 27.1089 24.9 26.5566 24.9H1.5918C1.03951 24.9 0.591797 25.3477 0.591797 25.9V39.15C0.591797 39.7023 1.03951 40.15 1.5918 40.15H26.5566C27.1089 40.15 27.5566 40.5977 27.5566 41.15V63.55C27.5566 64.1023 28.0043 64.55 28.5566 64.55H43.0351C43.5874 64.55 44.0351 64.1023 44.0351 63.55V41.15C44.0351 40.5977 44.4828 40.15 45.0351 40.15H70C70.5522 40.15 71 39.7023 71 39.15V25.9C71 25.3477 70.5522 24.9 70 24.9H45.0351C44.4828 24.9 44.0351 24.4523 44.0351 23.9V1.5C44.0351 0.947714 43.5874 0.5 43.0351 0.5H28.5566Z" fill="#0166FC"/>
</svg>
