<svg width="80" height="80" viewBox="0 0 80 80" fill="none" xmlns="http://www.w3.org/2000/svg">
<circle cx="40" cy="40" r="40" fill="#4A4A4A"/>
<path d="M40 45.1368C43.1132 45.1368 45.6263 42.5979 45.6263 39.4526V28.0842C45.6263 24.9389 43.1132 22.4 40 22.4C36.8867 22.4 34.3736 24.9389 34.3736 28.0842V39.4526C34.3736 42.5979 36.8867 45.1368 40 45.1368ZM38.1245 28.0842C38.1245 27.0421 38.9684 26.1895 40 26.1895C41.0315 26.1895 41.8754 27.0421 41.8754 28.0842V39.4526C41.8754 40.4947 41.0315 41.3474 40 41.3474C38.9684 41.3474 38.1245 40.4947 38.1245 39.4526V28.0842ZM50.5179 39.6421C49.9656 39.6421 49.5234 40.0913 49.4649 40.6404C48.9556 45.418 44.8431 49.2579 40 49.2579C35.1568 49.2579 30.7569 45.4179 30.2107 40.6402C30.148 40.0914 29.7061 39.6421 29.1538 39.6421H28.2C27.6477 39.6421 27.1959 40.0915 27.2363 40.6423C27.6674 46.5295 31.8908 50.9251 37.507 52.0916C37.9931 52.1926 38.3589 52.6102 38.3589 53.1067V57.4C38.3589 57.9523 38.8066 58.4 39.3589 58.4L40.641 58.4C41.1933 58.4 41.641 57.9523 41.641 57.4V53.1067C41.641 52.6102 42.0068 52.1926 42.4929 52.0916C48.1091 50.9251 52.3325 46.5295 52.7636 40.6423C52.804 40.0915 52.3522 39.6421 51.8 39.6421L50.5179 39.6421Z" fill="white"/>
</svg>
