<svg width="104" height="80" viewBox="0 0 104 80" fill="none" xmlns="http://www.w3.org/2000/svg">
<rect width="104" height="80" rx="40" fill="#EA4335"/>
<path d="M52.4 35.6117C49.68 35.6117 47.045 36.0632 44.58 36.912V42.5102C44.58 43.2144 44.189 43.8465 43.628 44.1354C41.962 45.0203 40.449 46.158 39.106 47.4763C38.8 47.8014 38.375 47.9819 37.916 47.9819C37.44 47.9819 37.015 47.7833 36.709 47.4582L32.493 42.9797C32.187 42.6727 32 42.2212 32 41.7156C32 41.2099 32.187 40.7585 32.493 40.4334C37.678 35.2144 44.682 32 52.4 32C60.118 32 67.122 35.2144 72.307 40.4334C72.613 40.7585 72.8 41.2099 72.8 41.7156C72.8 42.2212 72.613 42.6727 72.307 42.9977L68.091 47.4763C67.785 47.8014 67.36 48 66.884 48C66.425 48 66 47.8014 65.694 47.4944C64.351 46.158 62.821 45.0384 61.155 44.1535C60.594 43.8646 60.203 43.2506 60.203 42.5282V36.93C57.755 36.0632 55.12 35.6117 52.4 35.6117Z" fill="white"/>
</svg>
